Coordinates
version=1
nRows=8
nColumns=63
inDegrees=yes

Units are S.I. units (second, meters, Newtons, ...)
If the header above contains a line with 'inDegrees', this indicates whether rotational values are in degrees (yes) or radians (no).

endheader
time	pelvis_tilt	pelvis_list	pelvis_rotation	pelvis_tx	pelvis_ty	pelvis_tz	hip_flexion_r	hip_adduction_r	hip_rotation_r	knee_angle_r	knee_angle_r_beta	ankle_angle_r	subtalar_angle_r	mtp_angle_r	hip_flexion_l	hip_adduction_l	hip_rotation_l	knee_angle_l	knee_angle_l_beta	ankle_angle_l	subtalar_angle_l	mtp_angle_l	L5_S1_Flex_Ext	L5_S1_Lat_Bending	L5_S1_axial_rotation	L4_L5_Flex_Ext	L4_L5_Lat_Bending	L4_L5_axial_rotation	L3_L4_Flex_Ext	L3_L4_Lat_Bending	L3_L4_axial_rotation	L2_L3_Flex_Ext	L2_L3_Lat_Bending	L2_L3_axial_rotation	L1_L2_Flex_Ext	L1_L2_Lat_Bending	L1_L2_axial_rotation	L1_T12_Flex_Ext	L1_T12_Lat_Bending	L1_T12_axial_rotation	Abs_r3	Abs_r2	Abs_r1	Abs_t1	Abs_t2	neck_flexion	neck_bending	neck_rotation	arm_flex_r	arm_add_r	arm_rot_r	elbow_flex_r	pro_sup_r	wrist_flex_r	wrist_dev_r	arm_flex_l	arm_add_l	arm_rot_l	elbow_flex_l	pro_sup_l	wrist_flex_l	wrist_dev_l
     11.24200000	    -50.82013704	     -4.64473900	     -3.08800697	     -0.36738521	      1.11254922	      0.04913106	    118.22416285	     -6.15747146	     -3.84837926	    112.20624538	      1.95836842	     21.85513118	      7.72704485	      0.00000000	     83.99904731	    -11.48653698	     -2.87201743	     55.49774623	      0.96861840	     11.57353886	     10.09251252	      0.00000000	     -0.08090866	      0.53584110	      0.90399827	     -0.15025548	      0.71266867	      0.96049816	     -0.13292484	      1.30284406	      0.96049816	     -0.09247051	      1.30284406	      0.79099849	     -0.07513178	      1.09268718	      0.73449860	     -0.04623121	      0.83001787	      0.67799870	     -0.57792248	      6.06154172	      5.02776719	      0.00000000	      0.00000000	     -0.00000000	      0.00000000	      0.00000000	     76.21045554	    -12.62191555	     22.13623000	     29.47181112	     33.89283808	      0.00000000	      5.00000014	     77.04455167	     -6.25986691	     16.73402466	     23.90478751	     52.22229091	      0.00000000	      5.00000014
     11.25000000	    -50.83406274	     -4.55818688	     -2.85944403	     -0.36775920	      1.11264609	      0.04893709	    118.51688985	     -6.30785640	     -3.87814687	    111.29309821	      1.94243100	     21.73505496	      7.65582575	      0.00000000	     84.20060305	    -11.32275911	     -2.67421485	     56.94447460	      0.99386857	     11.58203581	     10.18424071	      0.00000000	     -0.08083688	      0.52559823	      0.86156648	     -0.15012218	      0.69904564	      0.91541438	     -0.13280692	      1.27793953	      0.91541438	     -0.09238848	      1.27793953	      0.75387067	     -0.07506513	      1.07179991	      0.70002276	     -0.04619020	      0.81415165	      0.64617486	     -0.57740979	      5.94567227	      4.79177429	      0.00000000	      0.00000000	     -0.00000000	      0.00000000	      0.00000000	     76.20187439	    -12.62190815	     22.07750996	     29.55925288	     33.89064334	      0.00000000	      5.00000014	     77.07919622	     -6.33054399	     16.69482232	     23.93635610	     52.21092828	      0.00000000	      5.00000014
     11.25800000	    -50.85662236	     -4.69289274	     -2.80448016	     -0.36814533	      1.11283535	      0.04892561	    118.66424025	     -6.38114033	     -4.21350895	    110.23224560	      1.92391563	     21.38312583	      7.43637487	      0.00000000	     84.56708432	    -11.41287419	     -2.22223301	     58.58726996	      1.02254076	     11.49399325	     10.69015358	      0.00000000	     -0.08090940	      0.54122938	      0.85829276	     -0.15025686	      0.71983508	      0.91193606	     -0.13292606	      1.31594512	      0.91193606	     -0.09247136	      1.31594512	      0.75100617	     -0.07513247	      1.10367496	      0.69736287	     -0.04623163	      0.83836431	      0.64371957	     -0.57792779	      6.12249501	      4.77356687	      0.00000000	      0.00000000	     -0.00000000	      0.00000000	      0.00000000	     76.25263084	    -12.69738818	     21.96415078	     29.62163046	     33.84131830	      0.00000000	      5.00000014	     77.10819953	     -6.28026837	     16.62776314	     23.86640501	     52.22206716	      0.00000000	      5.00000014
     11.26700000	    -50.86610625	     -4.53440872	     -2.46749979	     -0.36852967	      1.11292185	      0.04865704	    118.84544834	     -6.57929715	     -4.12587738	    109.18188659	      1.90558340	     21.25433886	      7.32927319	      0.00000000	     84.82615359	    -11.12512413	     -2.05120436	     60.17982891	      1.05033616	     11.80155240	     10.78934357	      0.00000000	     -0.08042383	      0.51708473	      0.79930217	     -0.14935510	      0.68772269	      0.84925856	     -0.13212831	      1.25723981	      0.84925856	     -0.09191640	      1.25723981	      0.69938940	     -0.07468157	      1.05443918	      0.64943301	     -0.04595418	      0.80096424	      0.59947663	     -0.57445939	      5.84936586	      4.44547888	      0.00000000	      0.00000000	     -0.00000000	      0.00000000	      0.00000000	     76.21197307	    -12.73383505	     21.97812951	     29.69030392	     33.83167455	      0.00000000	      5.00000014	     77.19686035	     -6.29400104	     16.59864085	     23.87305768	     52.22574536	      0.00000000	      5.00000014
     11.27500000	    -50.87859173	     -4.37129735	     -2.17697415	     -0.36886132	      1.11300721	      0.04841535	    118.95565575	     -6.74765205	     -4.05714211	    108.06108766	      1.88602177	     21.02471792	      7.17194298	      0.00000000	     85.14873039	    -10.88137174	     -1.86040800	     61.88408113	      1.08008097	     12.08958988	     10.93534730	      0.00000000	     -0.07923831	      0.49263069	      0.75575546	     -0.14715347	      0.65519882	      0.80299018	     -0.13018062	      1.19778226	      0.80299018	     -0.09056147	      1.19778226	      0.66128603	     -0.07358070	      1.00457250	      0.61405131	     -0.04527677	      0.76308494	      0.56681660	     -0.56599133	      5.57273690	      4.20328516	      0.00000000	      0.00000000	     -0.00000000	      0.00000000	      0.00000000	     76.18007893	    -12.80483043	     21.99407437	     29.75944642	     33.82211299	      0.00000000	      5.00000014	     77.28312613	     -6.25441728	     16.58673437	     23.83528657	     52.23450512	      0.00000000	      5.00000014
     11.28300000	    -50.89251438	     -4.22388281	     -1.93390011	     -0.36919258	      1.11313251	      0.04825915	    118.98239130	     -6.85907023	     -4.04382560	    106.85265485	      1.86493064	     20.68412649	      6.90199462	      0.00000000	     85.52135708	    -10.69908155	     -1.68664898	     63.64964382	      1.11089585	     12.41383748	     11.14070782	      0.00000000	     -0.07918154	      0.46830653	      0.72600381	     -0.14704803	      0.62284769	      0.77137905	     -0.13008735	      1.13864050	      0.77137905	     -0.09049658	      1.13864050	      0.63525333	     -0.07352798	      0.95497068	      0.58987809	     -0.04524433	      0.72540682	      0.54450286	     -0.56558581	      5.29757716	      4.03781538	      0.00000000	      0.00000000	     -0.00000000	      0.00000000	      0.00000000	     76.13645037	    -12.90724920	     22.01290871	     29.82788498	     33.80935763	      0.00000000	      5.00000014	     77.39916184	     -6.15797485	     16.59279783	     23.75108834	     52.25166915	      0.00000000	      5.00000014
     11.29200000	    -50.92787082	     -4.03017014	     -1.64492838	     -0.36956802	      1.11326791	      0.04798792	    118.95747827	     -7.04017324	     -4.00511742	    105.57680358	      1.84266284	     20.36382147	      6.64799685	      0.00000000	     85.91150667	    -10.45974261	     -1.58911870	     65.38049616	      1.14110492	     12.78909834	     11.30101646	      0.00000000	     -0.07890830	      0.43893478	      0.68758227	     -0.14654061	      0.58378325	      0.73055616	     -0.12963845	      1.06722601	      0.73055616	     -0.09018430	      1.06722601	      0.60163448	     -0.07327425	      0.89507580	      0.55866059	     -0.04508820	      0.67990997	      0.51568670	     -0.56363412	      4.96531797	      3.82412630	      0.00000000	      0.00000000	     -0.00000000	      0.00000000	      0.00000000	     76.14244177	    -12.98543178	     22.01321809	     29.89926664	     33.79782166	      0.00000000	      5.00000014	     77.55270223	     -6.07552400	     16.60356046	     23.69553187	     52.26653835	      0.00000000	      5.00000014
     11.30000000	    -50.95412773	     -3.86233574	     -1.38810651	     -0.36981088	      1.11338257	      0.04777768	    118.83667911	     -7.17440480	     -4.02174604	    104.23856173	      1.81930611	     19.96317687	      6.22131969	      0.00000000	     86.31952287	    -10.27350056	     -1.55219141	     67.14330247	      1.17187170	     13.13362186	     11.30330416	      0.00000000	     -0.07786331	      0.41170814	      0.65593580	     -0.14459995	      0.54757183	      0.69693179	     -0.12792163	      1.00102717	      0.69693179	     -0.08898998	      1.00102717	      0.57394383	     -0.07230387	      0.83955524	      0.53294784	     -0.04449110	      0.63773591	      0.49195185	     -0.55616983	      4.65732482	      3.64811816	      0.00000000	      0.00000000	     -0.00000000	      0.00000000	      0.00000000	     76.08730043	    -13.07788707	     21.99240618	     29.98192098	     33.82676704	      0.00000000	      5.00000014	     77.64708818	     -5.97525691	     16.62936000	     23.66047036	     52.25829579	      0.00000000	      5.00000014
